<svg width="60" height="60" viewBox="0 0 60 60" fill="none" xmlns="http://www.w3.org/2000/svg">
<rect width="60" height="60" rx="30" fill="white"/>
<path fill-rule="evenodd" clip-rule="evenodd" d="M32.8292 16.7755C32.8292 16.0544 32.2446 15.4697 31.5234 15.4697H28.4766C27.7554 15.4697 27.1708 16.0544 27.1708 16.7755V21.3458C27.1708 21.5862 26.9759 21.7811 26.7355 21.7811H22.1652C21.444 21.7811 20.8594 22.3657 20.8594 23.0869V26.1338C20.8594 26.855 21.444 27.4396 22.1652 27.4396H26.7355C26.9759 27.4396 27.1708 27.6345 27.1708 27.8749V32.4452C27.1708 33.1663 27.7554 33.751 28.4766 33.751H31.5234C32.2446 33.751 32.8292 33.1663 32.8292 32.4452V27.8749C32.8292 27.6345 33.0241 27.4396 33.2645 27.4396H37.8348C38.556 27.4396 39.1406 26.855 39.1406 26.1338V23.0869C39.1406 22.3657 38.556 21.7811 37.8348 21.7811H33.2645C33.0241 21.7811 32.8292 21.5862 32.8292 21.3458V16.7755ZM29.4093 22.4574C29.3355 22.3099 29.1848 22.2168 29.0199 22.2168C28.8551 22.2168 28.7044 22.3099 28.6306 22.4574L27.8317 24.0552C27.7949 24.1289 27.7195 24.1755 27.6371 24.1755H26.8436C26.7234 24.1755 26.626 24.2729 26.626 24.3931V24.8284C26.626 24.9486 26.7234 25.046 26.8436 25.046H28.0406C28.2055 25.046 28.3562 24.9529 28.4299 24.8054L28.8253 24.0147C28.9055 23.8543 29.1344 23.8543 29.2146 24.0147L30.5893 26.7641C30.6631 26.9116 30.8138 27.0047 30.9787 27.0047C31.1435 27.0047 31.2942 26.9116 31.368 26.7641L32.1669 25.1663C32.2037 25.0926 32.2791 25.046 32.3615 25.046H33.155C33.2752 25.046 33.3726 24.9486 33.3726 24.8284V24.3931C33.3726 24.2729 33.2752 24.1755 33.155 24.1755H31.958C31.7931 24.1755 31.6424 24.2686 31.5687 24.4161L31.1733 25.2069C31.0931 25.3673 30.8642 25.3673 30.784 25.2069L29.4093 22.4574Z" fill="#E0A256"/>
<path d="M18.9978 38.5003H19.7508C20.0774 38.5003 20.3238 38.5476 20.49 38.6422C20.6562 38.7369 20.7393 38.9002 20.7393 39.1321C20.7393 39.2291 20.722 39.3168 20.6874 39.3953C20.6539 39.4726 20.6049 39.5367 20.5402 39.5874C20.4756 39.6371 20.396 39.6705 20.3013 39.6879V39.7052C20.3994 39.7225 20.4866 39.7531 20.5627 39.7969C20.6401 39.8408 20.7007 39.9037 20.7445 39.9856C20.7895 40.0676 20.812 40.1737 20.812 40.3042C20.812 40.4588 20.7751 40.5904 20.7012 40.6989C20.6285 40.8074 20.5241 40.8899 20.3879 40.9464C20.2529 41.003 20.0924 41.0312 19.9066 41.0312H18.9978V38.5003ZM19.4132 39.5442H19.8114C19.9995 39.5442 20.13 39.5136 20.2027 39.4524C20.2754 39.3912 20.3117 39.3018 20.3117 39.1841C20.3117 39.0641 20.2684 38.9775 20.1819 38.9244C20.0965 38.8713 19.9603 38.8448 19.7733 38.8448H19.4132V39.5442ZM19.4132 39.88V40.6833H19.8512C20.0451 40.6833 20.1813 40.6458 20.2598 40.5708C20.3383 40.4957 20.3775 40.3942 20.3775 40.2661C20.3775 40.1876 20.3596 40.1195 20.3238 40.0618C20.2892 40.0041 20.2321 39.9597 20.1525 39.9285C20.0728 39.8962 19.9655 39.88 19.8305 39.88H19.4132ZM23.901 39.7623C23.901 39.9573 23.8762 40.1351 23.8266 40.2955C23.7781 40.4548 23.7048 40.5921 23.6067 40.7075C23.5086 40.8218 23.3857 40.9101 23.238 40.9724C23.0902 41.0347 22.9171 41.0659 22.7186 41.0659C22.5166 41.0659 22.3412 41.0347 22.1923 40.9724C22.0446 40.9101 21.9217 40.8212 21.8236 40.7058C21.7267 40.5904 21.6539 40.4525 21.6055 40.292C21.557 40.1316 21.5328 39.9539 21.5328 39.7588C21.5328 39.498 21.5755 39.2706 21.6609 39.0767C21.7474 38.8817 21.8784 38.7305 22.0538 38.6232C22.2304 38.5147 22.4532 38.4604 22.7221 38.4604C22.9852 38.4604 23.2039 38.5141 23.3782 38.6214C23.5525 38.7288 23.6829 38.88 23.7694 39.075C23.8572 39.2689 23.901 39.498 23.901 39.7623ZM21.969 39.7623C21.969 39.9573 21.9956 40.1264 22.0487 40.2695C22.1017 40.4115 22.1831 40.5211 22.2928 40.5985C22.4035 40.6746 22.5455 40.7127 22.7186 40.7127C22.8929 40.7127 23.0348 40.6746 23.1445 40.5985C23.2541 40.5211 23.3349 40.4115 23.3869 40.2695C23.4388 40.1264 23.4648 39.9573 23.4648 39.7623C23.4648 39.4657 23.4053 39.2337 23.2864 39.0664C23.1687 38.8979 22.9806 38.8136 22.7221 38.8136C22.549 38.8136 22.4064 38.8517 22.2945 38.9279C22.1837 39.004 22.1017 39.1131 22.0487 39.2551C21.9956 39.3959 21.969 39.5649 21.969 39.7623ZM27.0108 39.7623C27.0108 39.9573 26.986 40.1351 26.9363 40.2955C26.8879 40.4548 26.8146 40.5921 26.7165 40.7075C26.6184 40.8218 26.4955 40.9101 26.3477 40.9724C26.2 41.0347 26.0269 41.0659 25.8284 41.0659C25.6264 41.0659 25.451 41.0347 25.3021 40.9724C25.1544 40.9101 25.0315 40.8212 24.9334 40.7058C24.8364 40.5904 24.7637 40.4525 24.7152 40.292C24.6668 40.1316 24.6425 39.9539 24.6425 39.7588C24.6425 39.498 24.6852 39.2706 24.7706 39.0767C24.8572 38.8817 24.9882 38.7305 25.1636 38.6232C25.3402 38.5147 25.5629 38.4604 25.8318 38.4604C26.095 38.4604 26.3137 38.5141 26.488 38.6214C26.6622 38.7288 26.7926 38.88 26.8792 39.075C26.9669 39.2689 27.0108 39.498 27.0108 39.7623ZM25.0788 39.7623C25.0788 39.9573 25.1053 40.1264 25.1584 40.2695C25.2115 40.4115 25.2929 40.5211 25.4025 40.5985C25.5133 40.6746 25.6553 40.7127 25.8284 40.7127C26.0026 40.7127 26.1446 40.6746 26.2542 40.5985C26.3639 40.5211 26.4447 40.4115 26.4966 40.2695C26.5485 40.1264 26.5745 39.9573 26.5745 39.7623C26.5745 39.4657 26.5151 39.2337 26.3962 39.0664C26.2785 38.8979 26.0904 38.8136 25.8318 38.8136C25.6587 38.8136 25.5162 38.8517 25.4042 38.9279C25.2934 39.004 25.2115 39.1131 25.1584 39.2551C25.1053 39.3959 25.0788 39.5649 25.0788 39.7623ZM29.8037 41.0312H29.3259L28.5382 39.8817L28.2889 40.0843V41.0312H27.8734V38.5003H28.2889V39.7104C28.3397 39.648 28.3911 39.5857 28.443 39.5234C28.4949 39.4611 28.5469 39.3987 28.5988 39.3364L29.3121 38.5003H29.7812L28.836 39.6082L29.8037 41.0312ZM34.6902 38.5003L34.0289 41.0312H33.5753L33.1529 39.5147C33.1425 39.4778 33.131 39.4339 33.1183 39.3832C33.1056 39.3324 33.0929 39.2805 33.0802 39.2274C33.0687 39.1743 33.0583 39.1258 33.049 39.0819C33.041 39.0369 33.0352 39.0023 33.0317 38.9781C33.0294 39.0023 33.0242 39.0364 33.0162 39.0802C33.0081 39.1241 32.9983 39.1725 32.9867 39.2256C32.9763 39.2776 32.9648 39.3295 32.9521 39.3814C32.9394 39.4322 32.9279 39.4772 32.9175 39.5165L32.502 41.0312H32.0502L31.3906 38.5003H31.8078L32.1731 39.9839C32.1846 40.0312 32.1962 40.0826 32.2077 40.138C32.2204 40.1922 32.2319 40.247 32.2423 40.3024C32.2539 40.3578 32.2642 40.4121 32.2735 40.4652C32.2827 40.5171 32.2902 40.5644 32.296 40.6071C32.3018 40.5633 32.3093 40.5148 32.3185 40.4617C32.3277 40.4074 32.3375 40.3526 32.3479 40.2972C32.3595 40.2407 32.371 40.1864 32.3825 40.1345C32.3952 40.0826 32.4079 40.0358 32.4206 39.9943L32.8327 38.5003H33.2377L33.6584 39.9995C33.6711 40.0422 33.6832 40.0901 33.6948 40.1432C33.7075 40.1962 33.7196 40.2505 33.7311 40.3059C33.7427 40.3613 33.7531 40.415 33.7623 40.4669C33.7715 40.5188 33.779 40.5656 33.7848 40.6071C33.7929 40.5506 33.8033 40.4859 33.816 40.4132C33.8287 40.3405 33.8431 40.2666 33.8592 40.1916C33.8754 40.1166 33.8916 40.0474 33.9077 39.9839L34.2713 38.5003H34.6902ZM35.3677 41.0312V38.5003H35.7831V41.0312H35.3677ZM37.6482 41.0312H37.231V38.8534H36.49V38.5003H38.3874V38.8534H37.6482V41.0312ZM41.0903 41.0312H40.6766V39.8887H39.5097V41.0312H39.0943V38.5003H39.5097V39.5355H40.6766V38.5003H41.0903V41.0312Z" fill="#E0A256"/>
<path d="M16.4369 46.5269C16.6094 46.5269 16.7556 46.5056 16.8756 46.4631C16.9981 46.4181 17.0981 46.3569 17.1756 46.2794C17.2531 46.2019 17.3094 46.1119 17.3444 46.0094C17.3794 45.9044 17.3969 45.7919 17.3969 45.6719C17.3969 45.4319 17.3181 45.2444 17.1606 45.1094C17.0056 44.9744 16.7644 44.9069 16.4369 44.9069H15.9269V46.5269H16.4369ZM19.1294 49.4219H17.9819C17.7694 49.4219 17.6169 49.3419 17.5244 49.1819L16.6169 47.5956C16.5744 47.5281 16.5269 47.4794 16.4744 47.4494C16.4219 47.4169 16.3469 47.4006 16.2494 47.4006H15.9269V49.4219H14.6594V43.9581H16.4369C16.8319 43.9581 17.1681 43.9994 17.4456 44.0819C17.7256 44.1619 17.9531 44.2744 18.1281 44.4194C18.3056 44.5644 18.4344 44.7356 18.5144 44.9331C18.5944 45.1306 18.6344 45.3456 18.6344 45.5781C18.6344 45.7556 18.6106 45.9231 18.5631 46.0806C18.5156 46.2381 18.4456 46.3844 18.3531 46.5194C18.2606 46.6519 18.1456 46.7706 18.0081 46.8756C17.8731 46.9806 17.7169 47.0669 17.5394 47.1344C17.6219 47.1769 17.6994 47.2306 17.7719 47.2956C17.8444 47.3581 17.9094 47.4331 17.9669 47.5206L19.1294 49.4219ZM21.4495 44.9331V46.2081H23.167V47.1456H21.4495V48.4469H23.692V49.4219H20.1745V43.9581H23.692V44.9331H21.4495ZM26.3348 44.9331V46.2081H28.0523V47.1456H26.3348V48.4469H28.5773V49.4219H25.0598V43.9581H28.5773V44.9331H26.3348ZM32.105 48.4656C32.2725 48.4656 32.4088 48.4444 32.5138 48.4019C32.6213 48.3594 32.705 48.3044 32.765 48.2369C32.825 48.1694 32.8663 48.0931 32.8888 48.0081C32.9113 47.9231 32.9225 47.8369 32.9225 47.7494C32.9225 47.6494 32.9088 47.5594 32.8813 47.4794C32.8563 47.3994 32.8113 47.3319 32.7463 47.2769C32.6838 47.2219 32.6 47.1794 32.495 47.1494C32.39 47.1194 32.2575 47.1044 32.0975 47.1044H31.2125V48.4656H32.105ZM31.2125 44.9069V46.2569H31.8725C32.0125 46.2569 32.1388 46.2469 32.2513 46.2269C32.3638 46.2069 32.4588 46.1719 32.5363 46.1219C32.6163 46.0719 32.6763 46.0031 32.7163 45.9156C32.7588 45.8281 32.78 45.7181 32.78 45.5856C32.78 45.4556 32.7638 45.3481 32.7313 45.2631C32.6988 45.1756 32.6488 45.1056 32.5813 45.0531C32.5138 45.0006 32.4275 44.9631 32.3225 44.9406C32.22 44.9181 32.0975 44.9069 31.955 44.9069H31.2125ZM31.955 43.9581C32.3325 43.9581 32.6538 43.9931 32.9188 44.0631C33.1838 44.1331 33.4 44.2319 33.5675 44.3594C33.735 44.4869 33.8563 44.6419 33.9313 44.8244C34.0088 45.0069 34.0475 45.2106 34.0475 45.4356C34.0475 45.5581 34.03 45.6769 33.995 45.7919C33.96 45.9044 33.905 46.0106 33.83 46.1106C33.755 46.2081 33.6588 46.2981 33.5413 46.3806C33.4238 46.4631 33.2825 46.5344 33.1175 46.5944C33.4775 46.6819 33.7438 46.8231 33.9163 47.0181C34.0888 47.2131 34.175 47.4656 34.175 47.7756C34.175 48.0081 34.13 48.2244 34.04 48.4244C33.95 48.6244 33.8175 48.7994 33.6425 48.9494C33.47 49.0969 33.2563 49.2131 33.0013 49.2981C32.7463 49.3806 32.455 49.4219 32.1275 49.4219H29.945V43.9581H31.955ZM37.8354 48.4206C38.0054 48.4206 38.1566 48.3931 38.2891 48.3381C38.4241 48.2806 38.5379 48.1994 38.6304 48.0944C38.7229 47.9894 38.7929 47.8619 38.8404 47.7119C38.8904 47.5594 38.9154 47.3869 38.9154 47.1944V43.9581H40.1829V47.1944C40.1829 47.5294 40.1279 47.8369 40.0179 48.1169C39.9104 48.3969 39.7554 48.6381 39.5529 48.8406C39.3504 49.0431 39.1041 49.2006 38.8141 49.3131C38.5241 49.4256 38.1979 49.4819 37.8354 49.4819C37.4704 49.4819 37.1429 49.4256 36.8529 49.3131C36.5629 49.2006 36.3166 49.0431 36.1141 48.8406C35.9116 48.6381 35.7566 48.3969 35.6491 48.1169C35.5416 47.8369 35.4879 47.5294 35.4879 47.1944V43.9581H36.7554V47.1906C36.7554 47.3831 36.7791 47.5556 36.8266 47.7081C36.8766 47.8581 36.9479 47.9869 37.0404 48.0944C37.1329 48.1994 37.2454 48.2806 37.3779 48.3381C37.5129 48.3931 37.6654 48.4206 37.8354 48.4206ZM43.0265 46.1706H43.229C43.4165 46.1706 43.5515 46.1119 43.634 45.9944L44.864 44.2094C44.9365 44.1144 45.014 44.0494 45.0965 44.0144C45.1815 43.9769 45.2865 43.9581 45.4115 43.9581H46.514L44.894 46.1669C44.779 46.3194 44.6552 46.4294 44.5227 46.4969C44.6177 46.5319 44.704 46.5806 44.7815 46.6431C44.859 46.7056 44.9315 46.7869 44.999 46.8869L46.649 49.4219H45.5165C45.444 49.4219 45.3815 49.4169 45.329 49.4069C45.279 49.3969 45.2352 49.3819 45.1977 49.3619C45.1602 49.3419 45.1277 49.3181 45.1002 49.2906C45.0727 49.2606 45.0465 49.2269 45.0215 49.1894L43.784 47.2881C43.739 47.2181 43.6815 47.1694 43.6115 47.1419C43.544 47.1119 43.4515 47.0969 43.334 47.0969H43.0265V49.4219H41.759V43.9581H43.0265V46.1706Z" fill="#284184"/>
<path d="M52.5507 23.9057L52.2553 23.0467L49.8854 23.8615L49.748 23.4621L52.118 22.6473L51.8213 21.7844L52.1567 21.6691L52.886 23.7904L52.5507 23.9057Z" fill="#284184"/>
<path d="M49.9512 20.2545C50.0002 20.3517 50.0552 20.4312 50.1159 20.4927C50.1773 20.5555 50.2419 20.601 50.3097 20.6293C50.3787 20.6569 50.4492 20.6683 50.521 20.6633C50.594 20.6577 50.6667 20.6367 50.7391 20.6002C50.8861 20.526 50.9725 20.4215 50.9982 20.2866C51.0244 20.1529 50.9888 19.9893 50.8914 19.796L50.7111 19.4385L49.7772 19.9094L49.9512 20.2545ZM49.2287 22.1137L49.0583 21.7757C49.0242 21.7081 49.0261 21.6454 49.0639 21.5877L49.6313 20.5095C49.6508 20.4744 49.6605 20.442 49.6604 20.4123C49.6615 20.382 49.6501 20.3431 49.6261 20.2957L49.5015 20.0484L48.4537 20.5768L48.2627 20.1979L50.8171 18.9098L51.1884 19.6462C51.2716 19.8111 51.3258 19.9615 51.3512 20.0974C51.3784 20.2339 51.38 20.3566 51.356 20.4653C51.3338 20.5747 51.2881 20.6699 51.2189 20.7509C51.1503 20.8331 51.0614 20.9017 50.9523 20.9567C50.8634 21.0016 50.7729 21.0301 50.6809 21.0423C50.5889 21.0545 50.498 21.0497 50.4082 21.0281C50.3202 21.007 50.2346 20.9699 50.1512 20.9167C50.0679 20.8635 49.9902 20.7949 49.918 20.7108C49.9135 20.7726 49.8944 20.8335 49.8607 20.8936L49.2287 22.1137Z" fill="#284184"/>
<path d="M49.1649 18.8822C48.9902 19.0055 48.8097 19.0907 48.6234 19.1377C48.4389 19.185 48.2576 19.1952 48.0792 19.1683C47.902 19.1406 47.7339 19.0764 47.5749 18.9756C47.416 18.8749 47.2753 18.7377 47.1527 18.5641C47.0309 18.3916 46.9487 18.213 46.9062 18.0285C46.8644 17.845 46.8602 17.6651 46.8934 17.4888C46.9285 17.3128 46.9988 17.1453 47.1044 16.9862C47.211 16.8264 47.3517 16.6848 47.5263 16.5615C47.6999 16.4389 47.8799 16.3541 48.0662 16.3072C48.2525 16.2602 48.4339 16.25 48.6103 16.2766C48.7887 16.3035 48.9573 16.3673 49.1162 16.4681C49.277 16.5692 49.4183 16.7059 49.5401 16.8785C49.6627 17.052 49.7443 17.231 49.785 17.4152C49.8268 17.5987 49.8305 17.779 49.7962 17.9561C49.7629 18.1323 49.6926 18.2999 49.5852 18.4586C49.4786 18.6184 49.3385 18.7596 49.1649 18.8822ZM48.9144 18.5274C49.0532 18.4294 49.1646 18.3223 49.2485 18.2062C49.3323 18.0901 49.3879 17.9696 49.4151 17.8447C49.4431 17.7208 49.4425 17.5945 49.4132 17.4655C49.3848 17.3377 49.3272 17.2125 49.2407 17.0899C49.1541 16.9673 49.055 16.8706 48.9433 16.7999C48.8324 16.7303 48.7135 16.6874 48.5866 16.6713C48.4598 16.6551 48.3277 16.6672 48.1902 16.7073C48.0527 16.7475 47.9145 16.8166 47.7757 16.9146C47.6357 17.0135 47.5238 17.1209 47.44 17.237C47.3572 17.3524 47.3022 17.4725 47.2749 17.5974C47.2477 17.7223 47.2483 17.8487 47.2768 17.9765C47.3071 18.1047 47.3656 18.2301 47.4521 18.3527C47.5387 18.4753 47.6369 18.5718 47.7468 18.6422C47.8585 18.7129 47.9773 18.7557 48.1034 18.7708C48.2302 18.7869 48.3618 18.7753 48.4982 18.7359C48.6357 18.6957 48.7744 18.6262 48.9144 18.5274Z" fill="#284184"/>
<path d="M46.9119 14.2859L46.2112 14.9396L46.994 15.7786L46.742 16.0137L45.9592 15.1747L45.0721 16.0023L44.7813 15.6906L46.8731 13.7391L48.0826 15.0355L47.8306 15.2706L46.9119 14.2859Z" fill="#284184"/>
<path d="M45.8806 12.7698L44.1123 15.0186L43.821 14.7896L45.0795 13.1891C45.0984 13.1651 45.119 13.1399 45.1414 13.1136C45.1648 13.0881 45.1887 13.0621 45.2129 13.0355L43.3844 13.8203C43.3181 13.8509 43.2578 13.8449 43.2035 13.8022L43.1565 13.7653C43.1022 13.7226 43.0827 13.6658 43.0978 13.5949L43.4188 11.6171C43.3791 11.6805 43.3391 11.7378 43.2989 11.789L42.0404 13.3894L41.7476 13.1592L43.5159 10.9104L43.7633 11.1049C43.7925 11.1279 43.8125 11.1487 43.8233 11.1673C43.8359 11.1856 43.8392 11.2136 43.8333 11.2512L43.526 13.189C43.5192 13.2277 43.5102 13.2671 43.499 13.3072C43.4877 13.3473 43.4759 13.387 43.4636 13.4263C43.5339 13.382 43.6063 13.3426 43.6807 13.3082L45.4761 12.5429C45.5102 12.5275 45.5371 12.5233 45.5569 12.5304C45.5785 12.5373 45.6039 12.5522 45.6331 12.5752L45.8806 12.7698Z" fill="#284184"/>
<path d="M41.9443 11.6011C41.8427 11.7892 41.719 11.9458 41.573 12.0708C41.4289 12.1952 41.271 12.2851 41.0993 12.3403C40.9283 12.3944 40.7491 12.4116 40.562 12.3921C40.3748 12.3726 40.1877 12.3124 40.0007 12.2114C39.8149 12.1111 39.6619 11.9878 39.5417 11.8414C39.4226 11.6957 39.3388 11.5364 39.2901 11.3638C39.2432 11.1906 39.2316 11.0093 39.2554 10.8199C39.2798 10.6293 39.3428 10.4399 39.4443 10.2517C39.5453 10.0647 39.6687 9.90873 39.8146 9.78376C39.9606 9.65878 40.1185 9.56894 40.2884 9.51423C40.46 9.45899 40.6395 9.44114 40.8266 9.46066C41.0156 9.47965 41.203 9.53929 41.3888 9.63959C41.5758 9.74052 41.7285 9.86445 41.847 10.0114C41.966 10.1571 42.0495 10.3169 42.0976 10.4907C42.1463 10.6634 42.1578 10.8447 42.1323 11.0347C42.1079 11.2253 42.0452 11.4141 41.9443 11.6011ZM41.5621 11.3948C41.6428 11.2452 41.6949 11.0997 41.7184 10.9584C41.7418 10.8171 41.7379 10.6845 41.7068 10.5605C41.6767 10.4372 41.62 10.3243 41.5364 10.2218C41.454 10.12 41.3468 10.0335 41.2147 9.96217C41.0827 9.89089 40.9509 9.84843 40.8194 9.83481C40.6891 9.82182 40.5635 9.83631 40.4428 9.87829C40.322 9.92027 40.209 9.98982 40.1037 10.087C39.9985 10.1841 39.9055 10.3075 39.8248 10.4571C39.7434 10.6078 39.691 10.7539 39.6675 10.8951C39.6447 11.0353 39.6489 11.1673 39.6801 11.2913C39.7113 11.4153 39.7681 11.5282 39.8504 11.63C39.9346 11.7313 40.0428 11.8176 40.1748 11.8889C40.3069 11.9601 40.4378 12.0029 40.5675 12.017C40.699 12.0306 40.8245 12.0162 40.9441 11.9735C41.0649 11.9316 41.1775 11.8626 41.2822 11.7666C41.3874 11.6695 41.4807 11.5455 41.5621 11.3948Z" fill="#284184"/>
<path d="M38.2223 10.6366C38.2448 10.6447 38.261 10.6605 38.2709 10.6838L38.3659 10.9131C38.209 11.0032 38.0383 11.0552 37.854 11.069C37.6709 11.0832 37.4681 11.0501 37.2458 10.9697C37.051 10.8992 36.8865 10.8015 36.7523 10.6767C36.6193 10.5523 36.5186 10.4092 36.45 10.2474C36.3827 10.086 36.349 9.90996 36.3488 9.71922C36.3486 9.52848 36.3851 9.33195 36.4583 9.12963C36.5315 8.92731 36.6305 8.75338 36.7552 8.60783C36.8811 8.46273 37.0241 8.35062 37.1841 8.27151C37.3441 8.1924 37.5168 8.14827 37.7023 8.13913C37.8891 8.13044 38.0805 8.16157 38.2766 8.23252C38.4676 8.30166 38.6262 8.39435 38.7522 8.51057C38.8782 8.62679 38.9774 8.75661 39.0498 8.90004L38.8516 9.03804C38.8379 9.04862 38.8226 9.05579 38.8057 9.05956C38.79 9.06378 38.7716 9.06205 38.7503 9.05437C38.7266 9.04579 38.7028 9.02375 38.6789 8.98828C38.6563 8.95325 38.6239 8.91188 38.5819 8.86418C38.5415 8.81568 38.4875 8.76578 38.4199 8.71448C38.3523 8.66319 38.2617 8.61698 38.1481 8.57585C38.0145 8.5275 37.8835 8.50694 37.7552 8.51418C37.6273 8.52016 37.5067 8.55281 37.3935 8.6121C37.2819 8.6706 37.1804 8.75603 37.0888 8.8684C36.999 8.97997 36.925 9.1163 36.8667 9.27741C36.8075 9.44101 36.7779 9.59486 36.7781 9.73897C36.7782 9.88308 36.8028 10.0142 36.8519 10.1322C36.901 10.2502 36.9721 10.3523 37.0653 10.4382C37.1585 10.5242 37.2687 10.5902 37.3961 10.6363C37.4736 10.6644 37.5444 10.6851 37.6088 10.6985C37.6749 10.7111 37.7369 10.7173 37.7949 10.7171C37.8541 10.7173 37.912 10.7114 37.9686 10.6994C38.0257 10.6862 38.0841 10.6671 38.144 10.6421C38.1572 10.637 38.1703 10.634 38.1833 10.6331C38.1968 10.6309 38.2098 10.6321 38.2223 10.6366Z" fill="#284184"/>
<path d="M33.7605 8.78644C33.7804 8.68071 33.8186 8.5852 33.8752 8.49989C33.9331 8.41483 34.0025 8.3441 34.0834 8.28769C34.1656 8.23152 34.256 8.19246 34.3548 8.17049C34.4537 8.14721 34.5554 8.14539 34.6598 8.16503C34.7643 8.18468 34.859 8.22344 34.9441 8.28134C35.0294 8.33793 35.0995 8.40719 35.1543 8.48914C35.2105 8.57133 35.2494 8.66244 35.2711 8.76248C35.2942 8.86276 35.2958 8.96577 35.2759 9.07149C35.2562 9.17591 35.2176 9.27 35.1599 9.35375C35.1036 9.43775 35.0343 9.50783 34.9521 9.564C34.8712 9.62041 34.7807 9.66013 34.6804 9.68316C34.5803 9.70488 34.4781 9.70593 34.3737 9.68628C34.2693 9.66664 34.1751 9.62865 34.0911 9.57231C34.0073 9.51466 33.9373 9.44474 33.8812 9.36255C33.8263 9.2806 33.7873 9.19014 33.764 9.09116C33.742 8.99243 33.7408 8.89086 33.7605 8.78644Z" fill="#284184"/>
<path d="M31.7266 7.19456L30.8186 7.16672L30.7418 9.67171L30.3196 9.65877L30.3964 7.15378L29.4844 7.12582L29.4953 6.77137L31.7374 6.84011L31.7266 7.19456Z" fill="#284184"/>
<path d="M28.4753 7.31022C28.4642 7.33394 28.4519 7.35177 28.4383 7.36371C28.4248 7.37565 28.4067 7.38267 28.3843 7.38478C28.3605 7.38701 28.3324 7.37897 28.3 7.36066C28.2674 7.34103 28.2268 7.32016 28.178 7.29805C28.1305 7.2745 28.074 7.25511 28.0085 7.2399C27.9429 7.22337 27.8659 7.21926 27.7773 7.22756C27.694 7.23536 27.6216 7.25348 27.5602 7.28191C27.5001 7.30889 27.4506 7.34353 27.4119 7.38584C27.3731 7.42684 27.3448 7.47417 27.3272 7.52785C27.3107 7.58008 27.3053 7.63595 27.3109 7.69545C27.3181 7.77215 27.3432 7.83382 27.3862 7.88048C27.4306 7.92701 27.4862 7.96515 27.553 7.99491C27.6198 8.02466 27.6948 8.04899 27.778 8.06788C27.8611 8.08676 27.9463 8.10679 28.0337 8.12795C28.1209 8.14779 28.2066 8.17245 28.2907 8.20191C28.3749 8.23138 28.4513 8.27157 28.5201 8.32248C28.5888 8.37207 28.6462 8.43607 28.6922 8.51446C28.7394 8.5914 28.7686 8.68872 28.7796 8.80641C28.7914 8.93203 28.7806 9.05176 28.7472 9.1656C28.7152 9.27932 28.662 9.38102 28.5877 9.47068C28.5134 9.56035 28.4183 9.63462 28.3024 9.6935C28.1878 9.75093 28.0544 9.78677 27.9023 9.80102C27.8111 9.80957 27.7216 9.80862 27.6339 9.79816C27.5464 9.78902 27.4628 9.77218 27.3831 9.74763C27.3033 9.72175 27.2276 9.6895 27.1559 9.65086C27.0855 9.61077 27.0211 9.56477 26.9629 9.51287L27.065 9.29922C27.0754 9.28223 27.088 9.26771 27.1029 9.25564C27.1191 9.24345 27.1378 9.23637 27.1589 9.23439C27.1867 9.23178 27.2198 9.24336 27.2582 9.2691C27.298 9.29472 27.346 9.32291 27.4022 9.35366C27.4596 9.38296 27.5267 9.40868 27.6035 9.43084C27.6816 9.45287 27.7742 9.45886 27.8813 9.44883C27.9686 9.44065 28.0456 9.4221 28.1122 9.39318C28.1788 9.36293 28.2332 9.32448 28.2755 9.27783C28.319 9.22974 28.3505 9.1741 28.3699 9.11091C28.3893 9.04773 28.3956 8.97912 28.3886 8.90507C28.3808 8.82176 28.3553 8.75546 28.312 8.70615C28.2687 8.65685 28.2136 8.61733 28.1468 8.58757C28.08 8.55781 28.0051 8.53415 27.922 8.51659C27.839 8.49902 27.754 8.48098 27.6669 8.46246C27.5796 8.44262 27.494 8.41863 27.41 8.39048C27.326 8.36234 27.2496 8.32281 27.1808 8.2719C27.1119 8.21966 27.0542 8.15236 27.0078 8.07C26.9613 7.98632 26.9321 7.88101 26.9202 7.75407C26.9106 7.65225 26.9212 7.55187 26.952 7.45295C26.9827 7.35402 27.0324 7.26467 27.101 7.18488C27.1707 7.10364 27.2591 7.036 27.3661 6.98195C27.4729 6.92659 27.5978 6.89221 27.7406 6.87883C27.9006 6.86384 28.0498 6.87587 28.1882 6.91493C28.3278 6.95254 28.4516 7.0143 28.5597 7.10022L28.4753 7.31022Z" fill="#284184"/>
<path d="M25.0882 9.90158C25.1994 9.87561 25.2946 9.83361 25.3738 9.77557C25.453 9.71753 25.5151 9.64779 25.5602 9.56634C25.605 9.4836 25.6327 9.3919 25.6433 9.29123C25.6536 9.18926 25.6454 9.08138 25.6188 8.96756L25.2253 7.28168L25.6365 7.18566L26.0301 8.87154C26.0682 9.0345 26.0775 9.19122 26.0581 9.34168C26.0386 9.49215 25.9922 9.62915 25.9188 9.75267C25.8453 9.8762 25.746 9.98257 25.6209 10.0718C25.4958 10.161 25.3466 10.2258 25.1733 10.2663C25 10.3068 24.8375 10.3147 24.6858 10.2901C24.5342 10.2655 24.398 10.2141 24.2775 10.1358C24.1569 10.0576 24.0546 9.95534 23.9706 9.82903C23.8866 9.70272 23.8255 9.55808 23.7875 9.39512L23.3939 7.70924L23.8071 7.61277L24.2002 9.29671C24.2268 9.41052 24.2666 9.51101 24.3197 9.59818C24.3741 9.68505 24.4397 9.75566 24.5165 9.81001C24.593 9.86308 24.6796 9.89809 24.7763 9.91507C24.873 9.93204 24.9769 9.92755 25.0882 9.90158Z" fill="#284184"/>
<path d="M21.501 9.86176C21.6022 9.82166 21.6862 9.7741 21.753 9.71908C21.821 9.66358 21.8722 9.60333 21.9064 9.53834C21.9402 9.47211 21.9578 9.40299 21.9593 9.33098C21.9603 9.25774 21.9459 9.18345 21.916 9.10813C21.8554 8.95502 21.759 8.85961 21.627 8.82192C21.4961 8.78374 21.3301 8.80451 21.1288 8.88422L20.7565 9.03166L21.1416 10.0041L21.501 9.86176ZM23.2877 10.7483L22.9358 10.8877C22.8654 10.9156 22.8032 10.9081 22.749 10.8652L21.7262 10.2032C21.693 10.1807 21.6616 10.1681 21.632 10.1656C21.6019 10.1618 21.5622 10.1696 21.5128 10.1892L21.2553 10.2912L21.6874 11.3821L21.2929 11.5383L20.2395 8.87859L21.0063 8.5749C21.178 8.50693 21.3326 8.46639 21.4703 8.4533C21.6087 8.43848 21.731 8.4479 21.8372 8.48156C21.9441 8.51349 22.0348 8.56756 22.1092 8.64378C22.1849 8.71951 22.2453 8.81417 22.2903 8.92777C22.327 9.02038 22.3472 9.11306 22.3511 9.2058C22.355 9.29855 22.3421 9.38864 22.3125 9.47609C22.2836 9.56182 22.2389 9.64379 22.1784 9.72201C22.118 9.80024 22.0427 9.8715 21.9524 9.93581C22.0135 9.94588 22.0725 9.97037 22.1294 10.0093L23.2877 10.7483Z" fill="#284184"/>
<path d="M19.3649 9.6987L18.5734 10.1445L19.8033 12.3281L19.4354 12.5354L18.2054 10.3518L17.4104 10.7996L17.2364 10.4906L19.1909 9.38973L19.3649 9.6987Z" fill="#284184"/>
<path d="M16.0187 13.4735C15.952 13.3891 15.9051 13.2975 15.878 13.1988C15.8519 13.0993 15.8441 13.0005 15.8547 12.9025C15.8663 12.8036 15.8963 12.7097 15.9446 12.6209C15.992 12.5309 16.0575 12.4531 16.1409 12.3872C16.2243 12.3214 16.3157 12.2754 16.4153 12.2493C16.514 12.2222 16.6122 12.2148 16.71 12.2273C16.8089 12.2389 16.9032 12.2694 16.9929 12.3187C17.0836 12.3672 17.1623 12.4337 17.229 12.5181C17.2948 12.6015 17.3404 12.6925 17.3657 12.7909C17.392 12.8886 17.3993 12.9869 17.3877 13.0857C17.3771 13.1838 17.3476 13.2782 17.2991 13.3689C17.2497 13.4586 17.1834 13.5364 17.1 13.6022C17.0166 13.6681 16.9261 13.7141 16.8284 13.7405C16.7299 13.7658 16.6312 13.7726 16.5324 13.7609C16.4346 13.7485 16.3407 13.7185 16.2508 13.6711C16.1619 13.6228 16.0845 13.5569 16.0187 13.4735Z" fill="#284184"/>
<path d="M14.9477 15.5612L15.1992 15.7969L13.9942 17.0976L11.8956 15.1533L13.1007 13.8527L13.3535 14.0869L12.4382 15.0748L13.1031 15.6908L13.8397 14.8958L14.0837 15.122L13.3472 15.9169L14.0311 16.5506L14.9477 15.5612Z" fill="#284184"/>
<path d="M11.4329 16.4907C11.4434 16.5146 11.4488 16.5356 11.4489 16.5537C11.449 16.5718 11.4425 16.59 11.4293 16.6083C11.4153 16.6277 11.3908 16.6436 11.3557 16.656C11.3196 16.6676 11.2771 16.6846 11.2284 16.7068C11.1794 16.7272 11.1277 16.7571 11.0732 16.7965C11.0177 16.835 10.964 16.8905 10.912 16.9627C10.8632 17.0307 10.8293 17.0971 10.8105 17.1621C10.7913 17.2251 10.7849 17.2852 10.7914 17.3422C10.7968 17.3984 10.8139 17.4508 10.8428 17.4993C10.8714 17.5461 10.91 17.5869 10.9585 17.6217C11.021 17.6667 11.084 17.6883 11.1475 17.6864C11.2117 17.6835 11.277 17.6667 11.3433 17.6358C11.4097 17.605 11.4773 17.5644 11.5461 17.5142C11.615 17.4639 11.6861 17.4127 11.7594 17.3608C11.8316 17.308 11.9065 17.2596 11.984 17.2155C12.0615 17.1714 12.142 17.1402 12.2256 17.1218C12.3081 17.1025 12.394 17.1013 12.4834 17.1181C12.5724 17.133 12.6649 17.175 12.7609 17.244C12.8633 17.3176 12.9465 17.4044 13.0105 17.5043C13.0752 17.6032 13.1169 17.7101 13.1357 17.825C13.1545 17.9399 13.1481 18.0604 13.1164 18.1864C13.0844 18.3106 13.0238 18.4347 12.9347 18.5588C12.8812 18.6332 12.8217 18.7 12.7562 18.7593C12.6918 18.8193 12.6242 18.8713 12.5533 18.9152C12.4814 18.9584 12.4074 18.9943 12.3312 19.0229C12.2547 19.0497 12.1777 19.068 12.1003 19.0778L12.0063 18.8606C12.0003 18.8416 11.9976 18.8225 11.9983 18.8033C11.9998 18.7831 12.0067 18.7644 12.0191 18.7471C12.0354 18.7245 12.0658 18.7071 12.1105 18.6951C12.1559 18.6819 12.2087 18.6642 12.2688 18.642C12.3286 18.618 12.3921 18.5843 12.4593 18.5409C12.5272 18.4965 12.5925 18.4306 12.6553 18.3433C12.7065 18.2721 12.743 18.2019 12.765 18.1326C12.7859 18.0626 12.7926 17.9963 12.7853 17.9337C12.7776 17.8693 12.7563 17.809 12.7214 17.7529C12.6865 17.6968 12.6389 17.647 12.5785 17.6036C12.5106 17.5547 12.4438 17.5305 12.3782 17.5307C12.3125 17.531 12.2466 17.5465 12.1802 17.5774C12.1139 17.6082 12.0469 17.6492 11.9791 17.7002C11.9113 17.7513 11.8418 17.8036 11.7707 17.8571C11.6984 17.9098 11.6241 17.9586 11.5477 18.0035C11.4713 18.0484 11.3913 18.08 11.3077 18.0984C11.2231 18.1161 11.1344 18.1154 11.0419 18.0963C10.9482 18.0764 10.8496 18.0292 10.7461 17.9548C10.663 17.8951 10.5943 17.8212 10.5399 17.7331C10.4855 17.6449 10.4508 17.5488 10.4356 17.4447C10.4202 17.3387 10.4272 17.2276 10.4567 17.1115C10.4852 16.9945 10.5413 16.8778 10.625 16.7613C10.7188 16.6308 10.8258 16.5262 10.9462 16.4475C11.0662 16.367 11.1942 16.3142 11.3299 16.2891L11.4329 16.4907Z" fill="#284184"/>
<path d="M10.7117 20.0501L9.53249 19.9055C9.4513 19.8971 9.3525 19.8793 9.2361 19.8522C9.27972 19.8919 9.31951 19.9302 9.35547 19.9673C9.39205 20.0032 9.42394 20.0367 9.45113 20.0676L10.2304 20.9585L10.7117 20.0501ZM12.0461 19.8081L11.8932 20.0968C11.8758 20.1296 11.8532 20.1522 11.8256 20.1647C11.798 20.1771 11.7688 20.1811 11.738 20.1769L11.0333 20.0898L10.4429 21.2041L10.9106 21.7383C10.9286 21.7583 10.941 21.7844 10.948 21.8167C10.9538 21.8483 10.9483 21.88 10.9315 21.9117L10.7785 22.2004L8.78422 19.854L8.98476 19.4755L12.0461 19.8081Z" fill="#284184"/>
<path d="M10.2585 22.6628L10.5821 22.7814L9.98167 24.4497L7.28998 23.4808L7.89045 21.8126L8.21473 21.9293L7.75864 23.1964L8.61151 23.5034L8.97854 22.4837L9.29157 22.5964L8.92454 23.6161L9.80178 23.9318L10.2585 22.6628Z" fill="#284184"/>
</svg>
